{"asset":{"version":"2.0","generator":"babylon.js glTF exporter for 3ds max 2018 v1.3.33"},"scene":0,"scenes":[{"nodes":[0,1,2,3],"extensions":{}}],"nodes":[{"mesh":0,"translation":[-0.492367864,-0.980213165,0.39676705],"rotation":[0.0,0.0,0.0,1.0],"scale":[1.0,1.0,1.0],"name":"Cylinder001"},{"mesh":1,"translation":[-2.31644372E-05,40.82863,25.1319733],"rotation":[1.68587363E-07,0.70710665,1.6858742E-07,0.7071069],"scale":[5.084661,0.5900321,5.48919],"name":"SLIDE"},{"mesh":2,"translation":[-2.31644372E-05,40.82863,25.1319733],"rotation":[1.68587363E-07,0.70710665,1.6858742E-07,0.7071069],"scale":[5.084661,0.59003216,5.53160858],"name":"ZOOLA SLIDE.001"},{"translation":[0.0,0.0,0.0],"rotation":[0.0,0.0,0.0,1.0],"scale":[1.0,1.0,1.0],"name":"Default light"}],"meshes":[{"primitives":[{"attributes":{"POSITION":1,"NORMAL":2,"TEXCOORD_0":3},"indices":0,"mode":4,"material":0}],"name":"Cylinder001"},{"primitives":[{"attributes":{"POSITION":5,"NORMAL":6},"indices":4,"mode":4,"material":1}],"name":"SLIDE"},{"primitives":[{"attributes":{"POSITION":8,"NORMAL":9},"indices":7,"mode":4,"material":2}],"name":"ZOOLA SLIDE.001"}],"accessors":[{"bufferView":0,"componentType":5123,"count":2160,"type":"SCALAR","name":"accessorIndices"},{"bufferView":1,"componentType":5126,"count":2160,"max":[70.19839,1.98825979,70.1556244],"min":[-70.02739,0.0,-70.1556244],"type":"VEC3","name":"accessorPositions"},{"bufferView":1,"byteOffset":25920,"componentType":5126,"count":2160,"type":"VEC3","name":"accessorNormals"},{"bufferView":2,"componentType":5126,"count":2160,"type":"VEC2","name":"accessorUVs"},{"bufferView":0,"byteOffset":4320,"componentType":5123,"count":48,"type":"SCALAR","name":"accessorIndices"},{"bufferView":1,"byteOffset":51840,"componentType":5126,"count":48,"max":[14.3848991,1.0,1.0],"min":[-1.00000048,-66.75277,-1.00000012],"type":"VEC3","name":"accessorPositions"},{"bufferView":1,"byteOffset":52416,"componentType":5126,"count":48,"type":"VEC3","name":"accessorNormals"},{"bufferView":0,"byteOffset":4416,"componentType":5123,"count":33060,"type":"SCALAR","name":"accessorIndices"},{"bufferView":1,"byteOffset":52992,"componentType":5126,"count":33060,"max":[14.3848991,15.9726944,1.00000012],"min":[-4.499498,-68.8030548,-1.00000012],"type":"VEC3","name":"accessorPositions"},{"bufferView":1,"byteOffset":449712,"componentType":5126,"count":33060,"type":"VEC3","name":"accessorNormals"}],"bufferViews":[{"buffer":0,"byteLength":70536,"name":"bufferViewScalar"},{"buffer":0,"byteOffset":70536,"byteLength":846432,"byteStride":12,"name":"bufferViewFloatVec3"},{"buffer":0,"byteOffset":916968,"byteLength":17280,"byteStride":8,"name":"bufferViewFloatVec2"}],"buffers":[{"uri":"gorka.bin","byteLength":934248}],"materials":[{"pbrMetallicRoughness":{"baseColorFactor":[0.612745166,0.612745166,0.612745166,1.0],"metallicFactor":0.0,"roughnessFactor":0.9},"emissiveFactor":[0.0,0.0,0.0],"alphaMode":"OPAQUE","name":"mn|materil0"},{"pbrMetallicRoughness":{"baseColorFactor":[0.404411823,0.706699431,0.735294163,1.0],"metallicFactor":0.0,"roughnessFactor":0.9},"emissiveFactor":[0.0,0.0,0.0],"alphaMode":"OPAQUE","name":"mn|materil2"},{"pbrMetallicRoughness":{"baseColorFactor":[0.694444537,0.424836665,0.0,1.0],"metallicFactor":0.0,"roughnessFactor":0.9},"emissiveFactor":[0.0,0.0,0.0],"alphaMode":"OPAQUE","name":"mn|materil1"}]}