{
  "asset": {
    "version": "2.0",
    "generator": "GLTFExporter"
  },
  "scenes": [
    {
      "name": "Scene",
      "nodes": [
        11
      ]
    }
  ],
  "scene": 0,
  "nodes": [
    {
      "name": "Backpack_parth_00",
      "mesh": 0
    },
    {
      "name": "Backpack_parth_09",
      "mesh": 1
    },
    {
      "name": "Backpack_parth_10",
      "mesh": 2
    },
    {
      "name": "Backpack_parth_01",
      "mesh": 3
    },
    {
      "name": "Backpack_parth_07",
      "mesh": 4
    },
    {
      "name": "Backpack_parth_05",
      "mesh": 5
    },
    {
      "name": "Backpack_parth_06",
      "mesh": 6
    },
    {
      "name": "Backpack_parth_08",
      "mesh": 7
    },
    {
      "name": "Backpack_parth_04",
      "mesh": 8
    },
    {
      "name": "Backpack_parth_03",
      "mesh": 9
    },
    {
      "name": "Backpack_parth_02",
      "mesh": 10
    },
    {
      "name": "Wide_2.obj",
      "children": [
        0,
        1,
        2,
        3,
        4,
        5,
        6,
        7,
        8,
        9,
        10
      ]
    }
  ],
  "bufferViews": [
    {
      "buffer": 0,
      "byteOffset": 0,
      "byteLength": 74160,
      "target": 34962,
      "byteStride": 12
    },
    {
      "buffer": 0,
      "byteOffset": 74160,
      "byteLength": 74160,
      "target": 34962,
      "byteStride": 12
    },
    {
      "buffer": 0,
      "byteOffset": 148320,
      "byteLength": 49440,
      "target": 34962,
      "byteStride": 8
    },
    {
      "buffer": 0,
      "byteOffset": 197760,
      "byteLength": 70344,
      "target": 34962,
      "byteStride": 12
    },
    {
      "buffer": 0,
      "byteOffset": 268104,
      "byteLength": 70344,
      "target": 34962,
      "byteStride": 12
    },
    {
      "buffer": 0,
      "byteOffset": 338448,
      "byteLength": 46896,
      "target": 34962,
      "byteStride": 8
    },
    {
      "buffer": 0,
      "byteOffset": 385344,
      "byteLength": 14976,
      "target": 34962,
      "byteStride": 12
    },
    {
      "buffer": 0,
      "byteOffset": 400320,
      "byteLength": 14976,
      "target": 34962,
      "byteStride": 12
    },
    {
      "buffer": 0,
      "byteOffset": 415296,
      "byteLength": 9984,
      "target": 34962,
      "byteStride": 8
    },
    {
      "buffer": 0,
      "byteOffset": 425280,
      "byteLength": 46800,
      "target": 34962,
      "byteStride": 12
    },
    {
      "buffer": 0,
      "byteOffset": 472080,
      "byteLength": 46800,
      "target": 34962,
      "byteStride": 12
    },
    {
      "buffer": 0,
      "byteOffset": 518880,
      "byteLength": 31200,
      "target": 34962,
      "byteStride": 8
    },
    {
      "buffer": 0,
      "byteOffset": 550080,
      "byteLength": 52272,
      "target": 34962,
      "byteStride": 12
    },
    {
      "buffer": 0,
      "byteOffset": 602352,
      "byteLength": 52272,
      "target": 34962,
      "byteStride": 12
    },
    {
      "buffer": 0,
      "byteOffset": 654624,
      "byteLength": 34848,
      "target": 34962,
      "byteStride": 8
    },
    {
      "buffer": 0,
      "byteOffset": 689472,
      "byteLength": 47808,
      "target": 34962,
      "byteStride": 12
    },
    {
      "buffer": 0,
      "byteOffset": 737280,
      "byteLength": 47808,
      "target": 34962,
      "byteStride": 12
    },
    {
      "buffer": 0,
      "byteOffset": 785088,
      "byteLength": 31872,
      "target": 34962,
      "byteStride": 8
    },
    {
      "buffer": 0,
      "byteOffset": 816960,
      "byteLength": 44496,
      "target": 34962,
      "byteStride": 12
    },
    {
      "buffer": 0,
      "byteOffset": 861456,
      "byteLength": 44496,
      "target": 34962,
      "byteStride": 12
    },
    {
      "buffer": 0,
      "byteOffset": 905952,
      "byteLength": 29664,
      "target": 34962,
      "byteStride": 8
    },
    {
      "buffer": 0,
      "byteOffset": 935616,
      "byteLength": 61344,
      "target": 34962,
      "byteStride": 12
    },
    {
      "buffer": 0,
      "byteOffset": 996960,
      "byteLength": 61344,
      "target": 34962,
      "byteStride": 12
    },
    {
      "buffer": 0,
      "byteOffset": 1058304,
      "byteLength": 40896,
      "target": 34962,
      "byteStride": 8
    },
    {
      "buffer": 0,
      "byteOffset": 1099200,
      "byteLength": 4752,
      "target": 34962,
      "byteStride": 12
    },
    {
      "buffer": 0,
      "byteOffset": 1103952,
      "byteLength": 4752,
      "target": 34962,
      "byteStride": 12
    },
    {
      "buffer": 0,
      "byteOffset": 1108704,
      "byteLength": 3168,
      "target": 34962,
      "byteStride": 8
    },
    {
      "buffer": 0,
      "byteOffset": 1111872,
      "byteLength": 168480,
      "target": 34962,
      "byteStride": 12
    },
    {
      "buffer": 0,
      "byteOffset": 1280352,
      "byteLength": 168480,
      "target": 34962,
      "byteStride": 12
    },
    {
      "buffer": 0,
      "byteOffset": 1448832,
      "byteLength": 112320,
      "target": 34962,
      "byteStride": 8
    },
    {
      "buffer": 0,
      "byteOffset": 1561152,
      "byteLength": 58176,
      "target": 34962,
      "byteStride": 12
    },
    {
      "buffer": 0,
      "byteOffset": 1619328,
      "byteLength": 58176,
      "target": 34962,
      "byteStride": 12
    },
    {
      "buffer": 0,
      "byteOffset": 1677504,
      "byteLength": 38784,
      "target": 34962,
      "byteStride": 8
    }
  ],
  "buffers": [
    {
      "byteLength": 1716288,
      "uri": "data:application/octet-stream;base64,"
    }
  ],
  "accessors": [
    {
      "bufferView": 0,
      "componentType": 5126,
      "count": 6180,
      "max": [
        15.573623657226562,
        41.927490234375,
        -1.6531529426574707
      ],
      "min": [
        -14.157917022705078,
        0.10803200304508209,
        -3.20558500289917
      ],
      "type": "VEC3"
    },
    {
      "bufferView": 1,
      "componentType": 5126,
      "count": 6180,
      "max": [
        0.9999970197677612,
        0.9966840147972107,
        0.020284999161958694
      ],
      "min": [
        -0.9999589920043945,
        -0.9975050091743469,
        -1
      ],
      "type": "VEC3"
    },
    {
      "bufferView": 2,
      "componentType": 5126,
      "count": 6180,
      "max": [
        1.3829209804534912,
        0.5351709723472595
      ],
      "min": [
        1.0019530057907104,
        0.0019529999699443579
      ],
      "type": "VEC2"
    },
    {
      "bufferView": 3,
      "componentType": 5126,
      "count": 5862,
      "max": [
        14.04034423828125,
        40.77027893066406,
        14.602840423583984
      ],
      "min": [
        -12.655336380004883,
        15.486820220947266,
        9.113402366638184
      ],
      "type": "VEC3"
    },
    {
      "bufferView": 4,
      "componentType": 5126,
      "count": 5862,
      "max": [
        0.9962090253829956,
        0.9999539852142334,
        0.9999690055847168
      ],
      "min": [
        -0.996209979057312,
        -0.9999549984931946,
        -0.31494900584220886
      ],
      "type": "VEC3"
    },
    {
      "bufferView": 5,
      "componentType": 5126,
      "count": 5862,
      "max": [
        0.9980469942092896,
        0.9980469942092896
      ],
      "min": [
        0.0019529999699443579,
        0.4211980104446411
      ],
      "type": "VEC2"
    },
    {
      "bufferView": 6,
      "componentType": 5126,
      "count": 1248,
      "max": [
        13.625732421875,
        17.69116973876953,
        14.155790328979492
      ],
      "min": [
        -12.462708473205566,
        0.7392650246620178,
        8.420700073242188
      ],
      "type": "VEC3"
    },
    {
      "bufferView": 7,
      "componentType": 5126,
      "count": 1248,
      "max": [
        0.9824119806289673,
        0.06509499996900558,
        0.9997439980506897
      ],
      "min": [
        -0.9862430095672607,
        -0.9989240169525146,
        -0.2641009986400604
      ],
      "type": "VEC3"
    },
    {
      "bufferView": 8,
      "componentType": 5126,
      "count": 1248,
      "max": [
        0.9944760203361511,
        0.41678598523139954
      ],
      "min": [
        0.011649999767541885,
        0.0019529999699443579
      ],
      "type": "VEC2"
    },
    {
      "bufferView": 9,
      "componentType": 5126,
      "count": 3900,
      "max": [
        15.112724304199219,
        41.61824035644531,
        10.938030242919922
      ],
      "min": [
        -13.746967315673828,
        17.867340087890625,
        4.892343044281006
      ],
      "type": "VEC3"
    },
    {
      "bufferView": 10,
      "componentType": 5126,
      "count": 3900,
      "max": [
        0.9998810291290283,
        0.9986249804496765,
        0.9998909831047058
      ],
      "min": [
        -0.9998900294303894,
        -0.9972119927406311,
        -0.3091239929199219
      ],
      "type": "VEC3"
    },
    {
      "bufferView": 11,
      "componentType": 5126,
      "count": 3900,
      "max": [
        0.9618120193481445,
        1.9980469942092896
      ],
      "min": [
        0.0019529999699443579,
        1.6229890584945679
      ],
      "type": "VEC2"
    },
    {
      "bufferView": 12,
      "componentType": 5126,
      "count": 4356,
      "max": [
        15.723526000976562,
        42.1822509765625,
        6.620782852172852
      ],
      "min": [
        -14.334426879882812,
        17.888450622558594,
        -2.328589916229248
      ],
      "type": "VEC3"
    },
    {
      "bufferView": 13,
      "componentType": 5126,
      "count": 4356,
      "max": [
        0.9999979734420776,
        0.9998639822006226,
        0.9999970197677612
      ],
      "min": [
        -0.9999979734420776,
        -0.9993569850921631,
        -0.9386950135231018
      ],
      "type": "VEC3"
    },
    {
      "bufferView": 14,
      "componentType": 5126,
      "count": 4356,
      "max": [
        0.9980469942092896,
        1.6143640279769897
      ],
      "min": [
        0.0019529999699443579,
        1.0019530057907104
      ],
      "type": "VEC2"
    },
    {
      "bufferView": 15,
      "componentType": 5126,
      "count": 3984,
      "max": [
        16.036724090576172,
        17.87295913696289,
        10.092720031738281
      ],
      "min": [
        -14.647624969482422,
        -0.020673999562859535,
        -2.3106210231781006
      ],
      "type": "VEC3"
    },
    {
      "bufferView": 16,
      "componentType": 5126,
      "count": 3984,
      "max": [
        0.9999330043792725,
        0.9999949932098389,
        0.9998689889907837
      ],
      "min": [
        -0.9998990297317505,
        -0.9999809861183167,
        -0.9993569850921631
      ],
      "type": "VEC3"
    },
    {
      "bufferView": 17,
      "componentType": 5126,
      "count": 3984,
      "max": [
        1.8257290124893188,
        0.8065750002861023
      ],
      "min": [
        1.4240870475769043,
        0.0019529999699443579
      ],
      "type": "VEC2"
    },
    {
      "bufferView": 18,
      "componentType": 5126,
      "count": 3708,
      "max": [
        21.50067138671875,
        46.926700592041016,
        -1.7835429906845093
      ],
      "min": [
        -20.210145950317383,
        0.002400999888777733,
        -14.111149787902832
      ],
      "type": "VEC3"
    },
    {
      "bufferView": 19,
      "componentType": 5126,
      "count": 3708,
      "max": [
        0.990792989730835,
        0.9959509968757629,
        0.9998769760131836
      ],
      "min": [
        -0.990792989730835,
        -0.998727023601532,
        -0.9997689723968506
      ],
      "type": "VEC3"
    },
    {
      "bufferView": 20,
      "componentType": 5126,
      "count": 3708,
      "max": [
        1.983186960220337,
        0.9980469942092896
      ],
      "min": [
        1.0019530057907104,
        0.4678589999675751
      ],
      "type": "VEC2"
    },
    {
      "bufferView": 21,
      "componentType": 5126,
      "count": 5112,
      "max": [
        15.317493438720703,
        42.096710205078125,
        -1.967278003692627
      ],
      "min": [
        -14.026956558227539,
        0.7644330263137817,
        -13.391480445861816
      ],
      "type": "VEC3"
    },
    {
      "bufferView": 22,
      "componentType": 5126,
      "count": 5112,
      "max": [
        0.9986550211906433,
        0.9994990229606628,
        0.9930160045623779
      ],
      "min": [
        -0.9986550211906433,
        -0.997763991355896,
        -0.9885830283164978
      ],
      "type": "VEC3"
    },
    {
      "bufferView": 23,
      "componentType": 5126,
      "count": 5112,
      "max": [
        1.9671809673309326,
        0.9336810111999512
      ],
      "min": [
        1.0019530057907104,
        0.0019529999699443579
      ],
      "type": "VEC2"
    },
    {
      "bufferView": 24,
      "componentType": 5126,
      "count": 396,
      "max": [
        -9.993515014648438,
        16.20977020263672,
        13.087869644165039
      ],
      "min": [
        -10.660378456115723,
        13.42411994934082,
        12.579839706420898
      ],
      "type": "VEC3"
    },
    {
      "bufferView": 25,
      "componentType": 5126,
      "count": 396,
      "max": [
        0.9946020245552063,
        0.8136529922485352,
        0.9465579986572266
      ],
      "min": [
        -0.995468020439148,
        -0.7616680264472961,
        -0.9358059763908386
      ],
      "type": "VEC3"
    },
    {
      "bufferView": 26,
      "componentType": 5126,
      "count": 396,
      "max": [
        1.425178050994873,
        0.04554999992251396
      ],
      "min": [
        1.0019530057907104,
        0.0019529999699443579
      ],
      "type": "VEC2"
    },
    {
      "bufferView": 27,
      "componentType": 5126,
      "count": 14040,
      "max": [
        15.090435028076172,
        41.73357009887695,
        14.37954044342041
      ],
      "min": [
        -13.701335906982422,
        17.74138069152832,
        2.3067970275878906
      ],
      "type": "VEC3"
    },
    {
      "bufferView": 28,
      "componentType": 5126,
      "count": 14040,
      "max": [
        0.9808599948883057,
        0.9969850182533264,
        0.9962430000305176
      ],
      "min": [
        -0.9808589816093445,
        -0.996982991695404,
        -0.9962499737739563
      ],
      "type": "VEC3"
    },
    {
      "bufferView": 29,
      "componentType": 5126,
      "count": 14040,
      "max": [
        1.775141954421997,
        0.7854740023612976
      ],
      "min": [
        1.0366380214691162,
        0.0019529999699443579
      ],
      "type": "VEC2"
    },
    {
      "bufferView": 30,
      "componentType": 5126,
      "count": 4848,
      "max": [
        11.974063873291016,
        3.776276111602783,
        -13.114410400390625
      ],
      "min": [
        -10.683525085449219,
        0.0035669999197125435,
        -14.556090354919434
      ],
      "type": "VEC3"
    },
    {
      "bufferView": 31,
      "componentType": 5126,
      "count": 4848,
      "max": [
        0.9954460263252258,
        0.9979100227355957,
        0.9999690055847168
      ],
      "min": [
        -0.9954429864883423,
        -0.9979109764099121,
        -0.9933630228042603
      ],
      "type": "VEC3"
    },
    {
      "bufferView": 32,
      "componentType": 5126,
      "count": 4848,
      "max": [
        1.9944169521331787,
        0.6087110042572021
      ],
      "min": [
        1.3210079669952393,
        0.0019529999699443579
      ],
      "type": "VEC2"
    }
  ],
  "materials": [
    {
      "pbrMetallicRoughness": {
        "metallicFactor": 0.5,
        "roughnessFactor": 0.5
      }
    }
  ],
  "meshes": [
    {
      "primitives": [
        {
          "mode": 4,
          "attributes": {
            "POSITION": 0,
            "NORMAL": 1,
            "TEXCOORD_0": 2
          },
          "material": 0
        }
      ]
    },
    {
      "primitives": [
        {
          "mode": 4,
          "attributes": {
            "POSITION": 3,
            "NORMAL": 4,
            "TEXCOORD_0": 5
          },
          "material": 0
        }
      ]
    },
    {
      "primitives": [
        {
          "mode": 4,
          "attributes": {
            "POSITION": 6,
            "NORMAL": 7,
            "TEXCOORD_0": 8
          },
          "material": 0
        }
      ]
    },
    {
      "primitives": [
        {
          "mode": 4,
          "attributes": {
            "POSITION": 9,
            "NORMAL": 10,
            "TEXCOORD_0": 11
          },
          "material": 0
        }
      ]
    },
    {
      "primitives": [
        {
          "mode": 4,
          "attributes": {
            "POSITION": 12,
            "NORMAL": 13,
            "TEXCOORD_0": 14
          },
          "material": 0
        }
      ]
    },
    {
      "primitives": [
        {
          "mode": 4,
          "attributes": {
            "POSITION": 15,
            "NORMAL": 16,
            "TEXCOORD_0": 17
          },
          "material": 0
        }
      ]
    },
    {
      "primitives": [
        {
          "mode": 4,
          "attributes": {
            "POSITION": 18,
            "NORMAL": 19,
            "TEXCOORD_0": 20
          },
          "material": 0
        }
      ]
    },
    {
      "primitives": [
        {
          "mode": 4,
          "attributes": {
            "POSITION": 21,
            "NORMAL": 22,
            "TEXCOORD_0": 23
          },
          "material": 0
        }
      ]
    },
    {
      "primitives": [
        {
          "mode": 4,
          "attributes": {
            "POSITION": 24,
            "NORMAL": 25,
            "TEXCOORD_0": 26
          },
          "material": 0
        }
      ]
    },
    {
      "primitives": [
        {
          "mode": 4,
          "attributes": {
            "POSITION": 27,
            "NORMAL": 28,
            "TEXCOORD_0": 29
          },
          "material": 0
        }
      ]
    },
    {
      "primitives": [
        {
          "mode": 4,
          "attributes": {
            "POSITION": 30,
            "NORMAL": 31,
            "TEXCOORD_0": 32
          },
          "material": 0
        }
      ]
    }
  ]
}